<svg width="44" height="44" viewBox="0 0 44 44" fill="none" xmlns="http://www.w3.org/2000/svg">
<g clip-path="url(#clip0_3_6851)">
<path d="M22 44C34.1503 44 44 34.1503 44 22C44 9.84974 34.1503 0 22 0C9.84974 0 0 9.84974 0 22C0 34.1503 9.84974 44 22 44Z" fill="#8247E5" style="fill:#8247E5;fill:color(display-p3 0.5098 0.2784 0.8980);fill-opacity:1;"/>
<g clip-path="url(#clip1_3_6851)">
<path d="M29.0182 16.9297C28.5169 16.6432 27.8724 16.6432 27.2995 16.9297L23.2891 19.293L20.5677 20.7969L16.6289 23.1601C16.1276 23.4466 15.4831 23.4466 14.9102 23.1601L11.8307 21.2982C11.3294 21.0117 10.9714 20.4388 10.9714 19.7943V16.2135C10.9714 15.6406 11.2578 15.0677 11.8307 14.7096L14.9102 12.9193C15.4115 12.6328 16.056 12.6328 16.6289 12.9193L19.7083 14.7812C20.2096 15.0677 20.5677 15.6406 20.5677 16.2851V18.6484L23.2891 17.0729V14.638C23.2891 14.0651 23.0026 13.4922 22.4297 13.1341L16.7005 9.76822C16.1992 9.48176 15.5547 9.48176 14.9818 9.76822L9.10937 13.2057C8.53646 13.4922 8.25 14.0651 8.25 14.638V21.3698C8.25 21.9427 8.53646 22.5156 9.10937 22.8737L14.9102 26.2396C15.4115 26.526 16.056 26.526 16.6289 26.2396L20.5677 23.9479L23.2891 22.3724L27.2279 20.0807C27.7292 19.7943 28.3737 19.7943 28.9466 20.0807L32.026 21.8711C32.5273 22.1575 32.8854 22.7305 32.8854 23.375V26.9557C32.8854 27.5286 32.599 28.1015 32.026 28.4596L29.0182 30.25C28.5169 30.5364 27.8724 30.5364 27.2995 30.25L24.22 28.4596C23.7187 28.1732 23.3607 27.6002 23.3607 26.9557V24.6641L20.6393 26.2396V28.6029C20.6393 29.1758 20.9258 29.7487 21.4987 30.1068L27.2995 33.4726C27.8008 33.7591 28.4453 33.7591 29.0182 33.4726L34.819 30.1068C35.3203 29.8203 35.6784 29.2474 35.6784 28.6029V21.7995C35.6784 21.2266 35.3919 20.6536 34.819 20.2956L29.0182 16.9297Z" fill="white" style="fill:white;fill:white;fill-opacity:1;"/>
</g>
</g>
<defs>
<clipPath id="clip0_3_6851">
<rect width="44" height="44" fill="white" style="fill:white;fill:white;fill-opacity:1;"/>
</clipPath>
<clipPath id="clip1_3_6851">
<rect width="27.5" height="23.9909" fill="white" style="fill:white;fill:white;fill-opacity:1;" transform="translate(8.25 9.625)"/>
</clipPath>
</defs>
</svg>
