<svg width="44" height="44" viewBox="0 0 44 44" fill="none" xmlns="http://www.w3.org/2000/svg">
<g clip-path="url(#clip0_3_6843)">
<path d="M22 44C34.1503 44 44 34.1503 44 22C44 9.84974 34.1503 0 22 0C9.84974 0 0 9.84974 0 22C0 34.1503 9.84974 44 22 44Z" fill="#2A5ADA" style="fill:#2A5ADA;fill:color(display-p3 0.1647 0.3529 0.8549);fill-opacity:1;"/>
<path d="M22 8.25L19.381 9.75595L12.244 13.881L9.625 15.3869V29.6607L12.244 31.1667L19.4464 35.2917L22.0655 36.7976L24.6845 35.2917L31.756 31.1667L34.375 29.6607V15.3869L31.756 13.881L24.619 9.75595L22 8.25ZM14.8631 26.6488V18.3988L22 14.2738L29.1369 18.3988V26.6488L22 30.7738L14.8631 26.6488Z" fill="white" style="fill:white;fill:white;fill-opacity:1;"/>
</g>
<defs>
<clipPath id="clip0_3_6843">
<rect width="44" height="44" fill="white" style="fill:white;fill:white;fill-opacity:1;"/>
</clipPath>
</defs>
</svg>
