<svg width="44" height="44" viewBox="0 0 44 44" fill="none" xmlns="http://www.w3.org/2000/svg">
<g clip-path="url(#clip0_3_6833)">
<path d="M22 44C34.1503 44 44 34.1503 44 22C44 9.84974 34.1503 0 22 0C9.84974 0 0 9.84974 0 22C0 34.1503 9.84974 44 22 44Z" fill="#50AF95" style="fill:#50AF95;fill:color(display-p3 0.3137 0.6863 0.5843);fill-opacity:1;"/>
<g clip-path="url(#clip1_3_6833)">
<path fill-rule="evenodd" clip-rule="evenodd" d="M12.415 11.129L6.89938 22.7007C6.8784 22.7437 6.87175 22.7923 6.8804 22.8394C6.88906 22.8865 6.91258 22.9296 6.94751 22.9624L21.8439 37.2195C21.8862 37.2601 21.9426 37.2827 22.0012 37.2827C22.0598 37.2827 22.1162 37.2601 22.1585 37.2195L37.0549 22.9633C37.0898 22.9305 37.1134 22.8874 37.122 22.8403C37.1307 22.7932 37.124 22.7446 37.103 22.7016L31.5874 11.1299C31.5696 11.0911 31.541 11.0581 31.5049 11.0351C31.4689 11.012 31.427 10.9998 31.3842 11H12.62C12.577 10.9994 12.5348 11.0113 12.4984 11.0342C12.462 11.0571 12.4331 11.0901 12.415 11.129Z" fill="white" style="fill:white;fill:white;fill-opacity:1;"/>
<path fill-rule="evenodd" clip-rule="evenodd" d="M23.9137 23.8891C23.8068 23.8971 23.2543 23.93 22.0217 23.93C21.0414 23.93 20.3454 23.9006 20.1012 23.8891C16.3127 23.7226 13.4849 23.0639 13.4849 22.2753C13.4849 21.4866 16.3127 20.8288 20.1012 20.6597V23.233C20.3489 23.2508 21.0583 23.2927 22.0387 23.2927C23.215 23.2927 23.8041 23.2437 23.9102 23.2339V20.6615C27.6907 20.8297 30.5122 21.4884 30.5122 22.2753C30.5122 23.0621 27.6915 23.7208 23.9102 23.8882L23.9137 23.8891ZM23.9137 20.3953V18.0925H29.1896V14.581H14.8253V18.0925H20.1003V20.3944C15.8127 20.5911 12.5884 21.4394 12.5884 22.4559C12.5884 23.4725 15.8127 24.3199 20.1003 24.5175V31.8966H23.9129V24.5148C28.1906 24.3181 31.4096 23.4707 31.4096 22.4551C31.4096 21.4394 28.1933 20.592 23.9129 20.3944L23.9137 20.3953Z" fill="#50AF95" style="fill:#50AF95;fill:color(display-p3 0.3137 0.6863 0.5843);fill-opacity:1;"/>
</g>
</g>
<defs>
<clipPath id="clip0_3_6833">
<rect width="44" height="44" fill="white" style="fill:white;fill:white;fill-opacity:1;"/>
</clipPath>
<clipPath id="clip1_3_6833">
<rect width="30.25" height="26.2828" fill="white" style="fill:white;fill:white;fill-opacity:1;" transform="translate(6.875 11)"/>
</clipPath>
</defs>
</svg>
