<svg width="44" height="44" viewBox="0 0 44 44" fill="none" xmlns="http://www.w3.org/2000/svg">
<g clip-path="url(#clip0_3_6875)">
<path d="M22 44C34.1503 44 44 34.1503 44 22C44 9.84974 34.1503 0 22 0C9.84974 0 0 9.84974 0 22C0 34.1503 9.84974 44 22 44Z" fill="#F0B90B" style="fill:#F0B90B;fill:color(display-p3 0.9412 0.7255 0.0431);fill-opacity:1;"/>
<path d="M21.5465 7.85126L24.9431 11.3297L16.3902 19.8825L12.9937 16.4859L21.5465 7.85126Z" fill="white" stroke="white" style="fill:white;fill:white;fill-opacity:1;stroke:white;stroke:white;stroke-opacity:1;"/>
<path d="M26.7027 13.0075L30.0993 16.4859L16.3902 30.195L12.9937 26.7984L26.7027 13.0075Z" fill="white" stroke="white" style="fill:white;fill:white;fill-opacity:1;stroke:white;stroke:white;stroke-opacity:1;"/>
<path d="M11.234 18.1638L14.6306 21.6422L11.234 25.0388L7.8374 21.6422L11.234 18.1638Z" fill="white" stroke="white" style="fill:white;fill:white;fill-opacity:1;stroke:white;stroke:white;stroke-opacity:1;"/>
<path d="M31.859 18.1638L35.2556 21.6422L21.5465 35.3513L18.1499 31.9547L31.859 18.1638Z" fill="white" stroke="white" style="fill:white;fill:white;fill-opacity:1;stroke:white;stroke:white;stroke-opacity:1;"/>
</g>
<defs>
<clipPath id="clip0_3_6875">
<rect width="44" height="44" fill="white" style="fill:white;fill:white;fill-opacity:1;"/>
</clipPath>
</defs>
</svg>
