<svg width="40" height="40" viewBox="0 0 40 40" fill="none" xmlns="http://www.w3.org/2000/svg">
<g clip-path="url(#clip0_1_119)">
<path d="M20 40C31.0457 40 40 31.0457 40 20C40 8.9543 31.0457 0 20 0C8.9543 0 0 8.9543 0 20C0 31.0457 8.9543 40 20 40Z" fill="black"/>
<g clip-path="url(#clip1_1_119)">
<path d="M27.5333 8.77636L22.3169 16.5178C21.9562 17.0449 22.6498 17.6831 23.1493 17.2392L28.2825 12.7719C28.4212 12.6609 28.6154 12.7442 28.6154 12.9384V26.8951C28.6154 27.0893 28.3657 27.1726 28.2547 27.0338L12.7164 8.4434C12.217 7.83296 11.4956 7.5 10.6909 7.5H10.136C8.69312 7.5 7.5 8.69312 7.5 10.1637V29.8085C7.5 31.2791 8.69312 32.4723 10.1637 32.4723C11.0794 32.4723 11.9395 32.0006 12.439 31.1959L17.6554 23.4545C18.0161 22.9273 17.3224 22.2891 16.823 22.7331L11.6898 27.1726C11.5511 27.2836 11.3568 27.2003 11.3568 27.0061V13.0771C11.3568 12.8829 11.6065 12.7997 11.7175 12.9384L27.2558 31.5289C27.7553 32.1393 28.5044 32.4723 29.2814 32.4723H29.8363C31.3069 32.4723 32.5 31.2791 32.5 29.8085V10.1637C32.5 8.69312 31.3069 7.5 29.8363 7.5C28.8929 7.5 28.0327 7.9717 27.5333 8.77636Z" fill="white"/>
</g>
</g>
<defs>
<clipPath id="clip0_1_119">
<rect width="40" height="40" fill="white"/>
</clipPath>
<clipPath id="clip1_1_119">
<rect width="25" height="24.9723" fill="white" transform="translate(7.5 7.5)"/>
</clipPath>
</defs>
</svg>
