<svg width="24" height="24" viewBox="0 0 24 24" fill="none" xmlns="http://www.w3.org/2000/svg">
<path fill-rule="evenodd" clip-rule="evenodd" d="M12 2.28809C11.4817 2.28809 11.007 2.55185 10.0574 3.07938L5.05743 5.85715L5.05742 5.85716V5.85716C4.46819 6.18451 4.49132 6.97071 5.08055 7.29806L11.223 10.7105C11.5066 10.8681 11.6484 10.9469 11.7985 10.9777C11.9315 11.0051 12.0685 11.0051 12.2015 10.9777C12.3516 10.9469 12.4934 10.8681 12.777 10.7105L18.9194 7.29806C19.5087 6.97071 19.5318 6.1845 18.9426 5.85715V5.85715L13.9426 3.07937C12.993 2.55185 12.5183 2.28809 12 2.28809ZM21 9.35378C21 9.21818 21 9.55719 21 9.55673C20.9993 8.85209 20.1314 8.34141 19.5152 8.68305C19.5148 8.68327 19.7672 8.54303 19.6662 8.59913L13.573 11.9843C13.2734 12.1507 13.1237 12.2339 13.0146 12.3522C12.9182 12.4569 12.8451 12.581 12.8005 12.7162C12.75 12.869 12.75 13.0403 12.75 13.3829V20.1956C12.75 20.835 13.3836 21.2315 13.9426 20.921V20.921L18.9426 18.1432C19.9458 17.5858 20.4475 17.3071 20.7237 16.8376C21 16.3681 21 15.7943 21 14.6466V9.35378V9.35378ZM10.0574 20.921C10.6164 21.2315 11.25 20.835 11.25 20.1956V13.3829C11.25 13.0403 11.25 12.869 11.1995 12.7162C11.1549 12.581 11.0818 12.4569 10.9854 12.3522C10.8763 12.2339 10.7266 12.1507 10.427 11.9843L4.33378 8.59913C4.23281 8.54303 4.48524 8.68327 4.48484 8.68305C3.86856 8.34141 3.00065 8.85209 3 9.55673C3 9.55719 3 9.21818 3 9.35378V9.35378V14.6466C3 15.7943 3 16.3681 3.27626 16.8376C3.55252 17.3071 4.05415 17.5858 5.05743 18.1432L10.0574 20.921V20.921Z" fill="#949494" style="fill:#949494;fill:color(display-p3 0.5804 0.5804 0.5804);fill-opacity:1;"/>
</svg>
