<svg width="44" height="44" viewBox="0 0 44 44" fill="none" xmlns="http://www.w3.org/2000/svg">
<g clip-path="url(#clip0_3_6857)">
<path d="M22 44C34.1917 44 44 34.1917 44 22C44 9.80826 34.1917 0 22 0C9.80826 0 0 9.80826 0 22C0 34.1917 9.80826 44 22 44Z" fill="#2775CA" style="fill:#2775CA;fill:color(display-p3 0.1529 0.4588 0.7922);fill-opacity:1;"/>
<path d="M28.05 25.4831C28.05 22.2748 26.125 21.1748 22.275 20.7165C19.5251 20.3498 18.9751 19.6165 18.9751 18.3331C18.9751 17.0496 19.8918 16.2248 21.7251 16.2248C23.375 16.2248 24.2918 16.7748 24.75 18.1498C24.8418 18.4248 25.1168 18.6081 25.3918 18.6081H26.8583C27.225 18.6081 27.5 18.3331 27.5 17.9665V17.8748C27.1333 15.8581 25.4833 14.2998 23.375 14.1165V11.9165C23.375 11.5498 23.1 11.2748 22.6418 11.183H21.2668C20.9001 11.183 20.6251 11.458 20.5333 11.9165V14.0248C17.7833 14.3915 16.0418 16.2248 16.0418 18.5165C16.0418 21.5416 17.8751 22.7331 21.7251 23.1916C24.2918 23.6498 25.1168 24.1998 25.1168 25.6666C25.1168 27.1333 23.8333 28.1416 22.0918 28.1416C19.7083 28.1416 18.8833 27.1331 18.6083 25.7581C18.5168 25.3916 18.2418 25.2081 17.9668 25.2081H16.4084C16.0418 25.2081 15.7668 25.4831 15.7668 25.8498V25.9416C16.1334 28.2331 17.6001 29.8831 20.6251 30.3416V32.5416C20.6251 32.9081 20.9001 33.1831 21.3583 33.2748H22.7333C23.1 33.2748 23.375 32.9998 23.4668 32.5416V30.3416C26.2168 29.8831 28.05 27.9581 28.05 25.4831Z" fill="white" style="fill:white;fill:white;fill-opacity:1;"/>
<path d="M17.3251 35.1084C10.1751 32.5419 6.50834 24.5669 9.16682 17.5085C10.5418 13.6585 13.5668 10.7252 17.3251 9.35019C17.6918 9.16693 17.8751 8.89193 17.8751 8.43345V7.15019C17.8751 6.78345 17.6918 6.50845 17.3251 6.41693C17.2333 6.41693 17.0501 6.41693 16.9583 6.50845C8.25008 9.25845 3.48334 18.5169 6.23334 27.2252C7.88334 32.3584 11.8251 36.3002 16.9583 37.9502C17.3251 38.1334 17.6918 37.9502 17.7833 37.5834C17.8751 37.4919 17.8751 37.4002 17.8751 37.2169V35.9334C17.8751 35.6584 17.6001 35.2919 17.3251 35.1084ZM27.0418 6.50845C26.6751 6.32519 26.3083 6.50845 26.2168 6.87519C26.1251 6.96693 26.1251 7.05845 26.1251 7.24193V8.52519C26.1251 8.89193 26.4001 9.25845 26.6751 9.44193C33.8251 12.0085 37.4918 19.9835 34.8333 27.0419C33.4583 30.8919 30.4333 33.8252 26.6751 35.2002C26.3083 35.3834 26.1251 35.6585 26.1251 36.1169V37.4002C26.1251 37.7669 26.3083 38.0419 26.6751 38.1334C26.7668 38.1334 26.9501 38.1335 27.0418 38.0419C35.7501 35.2919 40.5168 26.0335 37.7668 17.3252C36.1168 12.1002 32.0833 8.15845 27.0418 6.50845Z" fill="white" style="fill:white;fill:white;fill-opacity:1;"/>
</g>
<defs>
<clipPath id="clip0_3_6857">
<rect width="44" height="44" fill="white" style="fill:white;fill:white;fill-opacity:1;"/>
</clipPath>
</defs>
</svg>
