<svg width="32" height="32" viewBox="0 0 32 32" fill="none" xmlns="http://www.w3.org/2000/svg">
<g clip-path="url(#clip0_5_1654)">
<path d="M16.0005 32C24.837 32 32.0005 24.8366 32.0005 16C32.0005 7.16344 24.837 0 16.0005 0C7.16393 0 0.000488281 7.16344 0.000488281 16C0.000488281 24.8366 7.16393 32 16.0005 32Z" fill="#0D1E30" style="fill:#0D1E30;fill:color(display-p3 0.0510 0.1176 0.1882);fill-opacity:1;"/>
<g filter="url(#filter0_d_5_1654)">
<path d="M15.7255 6.05995C16.2045 5.81295 16.7895 6.38395 16.5355 6.85495C16.3865 7.23895 15.8255 7.34095 15.5395 7.04795C15.2365 6.76795 15.3355 6.21195 15.7255 6.05895V6.05995ZM10.5705 6.60595C10.8615 6.48795 11.2305 6.74995 11.2005 7.06295C11.2305 7.40095 10.8105 7.65095 10.5135 7.48995C10.1205 7.33995 10.1655 6.71195 10.5705 6.60595ZM21.1285 7.49895C20.6735 7.44495 20.6015 6.74095 21.0385 6.59895C21.3785 6.43695 21.6905 6.74195 21.7405 7.05895C21.6685 7.32895 21.4385 7.57695 21.1285 7.49895ZM11.7435 8.76395C12.2305 8.46095 12.9245 8.91195 12.8495 9.46895C12.8245 10.0299 12.0665 10.3559 11.6385 9.97595C11.2245 9.67795 11.2875 8.99395 11.7435 8.76395ZM19.1735 9.08595C19.3905 8.53595 20.2705 8.51795 20.5175 9.05395C20.7625 9.47095 20.4615 9.98795 20.0265 10.1299C19.4495 10.2359 18.9025 9.62195 19.1735 9.08595ZM15.1045 10.0989C15.0995 9.62495 15.5375 9.27295 15.9945 9.23995C16.2985 9.29995 16.6285 9.42695 16.7585 9.72795C17.0015 10.1439 16.7855 10.7149 16.3485 10.9059C16.1485 11.0159 15.9105 10.9749 15.6925 10.9619C15.3595 10.8019 15.0785 10.4849 15.1045 10.0989ZM7.43853 10.7889C7.88353 10.5189 8.48353 11.0089 8.31453 11.4849C8.22253 11.8959 7.66053 12.0629 7.33953 11.8009C6.99653 11.5549 7.05053 10.9639 7.43953 10.7879L7.43853 10.7889ZM23.9005 10.7869C24.2775 10.4989 24.9005 10.8299 24.8545 11.2979C24.8805 11.7249 24.3415 12.0479 23.9675 11.8279C23.5555 11.6449 23.5125 11.0209 23.9005 10.7879V10.7869ZM17.2605 11.6379C17.8825 11.4179 18.6225 11.6809 18.9765 12.2279C19.4445 12.8949 19.1965 13.9109 18.4695 14.2939C17.7175 14.7469 16.6185 14.3639 16.3395 13.5359C16.0245 12.7959 16.4845 11.8699 17.2595 11.6379H17.2605ZM13.6075 11.7109C14.2975 11.3909 15.2265 11.6589 15.5595 12.3529C15.9515 13.0289 15.6485 13.9699 14.9475 14.3189C14.2455 14.7119 13.2545 14.4139 12.9155 13.6889C12.5345 12.9869 12.8725 12.0339 13.6075 11.7109ZM9.95053 12.9399C10.0035 12.5029 10.4225 12.2179 10.8455 12.1879C11.0661 12.2112 11.2723 12.3087 11.4303 12.4644C11.5884 12.62 11.6889 12.8247 11.7155 13.0449C11.6855 13.4949 11.3325 13.9329 10.8485 13.9309C10.3155 13.9759 9.84853 13.4539 9.95053 12.9399ZM20.7525 12.2839C21.2995 11.9709 22.0585 12.4259 22.0345 13.0439C22.0715 13.6989 21.2315 14.1599 20.6875 13.7759C20.1215 13.4559 20.1655 12.5559 20.7525 12.2839ZM12.1225 14.5909C12.7605 14.4179 13.4925 14.7139 13.8055 15.2919C14.1485 15.8739 14.0085 16.6819 13.4755 17.11C12.7905 17.736 11.5295 17.4839 11.1655 16.6299C10.7465 15.8469 11.2555 14.7969 12.1215 14.5899L12.1225 14.5909ZM19.0495 14.5879C19.6705 14.4129 20.4005 14.6479 20.7345 15.2049C21.1765 15.8419 20.9655 16.7929 20.3085 17.2029C19.6185 17.6799 18.5525 17.4299 18.1725 16.6839C17.7125 15.9129 18.1755 14.8229 19.0495 14.5879ZM8.00953 15.3139C8.56153 15.1089 9.17353 15.7079 8.94953 16.2469C8.81353 16.7369 8.11053 16.9189 7.74753 16.5569C7.32253 16.2169 7.47953 15.4619 8.00953 15.3139ZM22.9785 16.096C22.9682 15.8758 23.0451 15.6605 23.1927 15.4968C23.3403 15.3331 23.5465 15.2344 23.7665 15.2219C24.1445 15.2819 24.5125 15.582 24.4825 15.9869C24.5175 16.5219 23.8625 16.885 23.3985 16.634C23.1815 16.525 23.0705 16.306 22.9785 16.096ZM5.29453 15.5799C5.62653 15.4369 6.03753 15.7199 5.96153 16.0829C5.94353 16.4939 5.32653 16.6529 5.10053 16.3089C4.90053 16.0699 5.02053 15.7029 5.29453 15.5789V15.5799ZM26.2435 15.5709C26.4775 15.4079 26.8535 15.5249 26.9455 15.7939C27.1025 16.0879 26.8145 16.4899 26.4785 16.4409C26.0065 16.4829 25.8545 15.7759 26.2435 15.5709ZM13.9265 17.544C14.8005 17.321 15.7405 18.0379 15.7465 18.9239C15.8025 19.8189 14.8765 20.6119 13.9825 20.4059C13.2905 20.2959 12.7475 19.6399 12.7705 18.9529C12.7685 18.2949 13.2725 17.683 13.9265 17.544ZM17.3885 17.5429C18.2755 17.2989 19.2435 18.0289 19.2295 18.9349C19.2765 19.8129 18.3795 20.58 17.5035 20.405C16.6785 20.301 16.0705 19.4099 16.3005 18.6219C16.4165 18.0979 16.8625 17.6719 17.3885 17.5419V17.5429ZM10.7125 18.0879C11.3265 17.9849 11.9025 18.6579 11.6535 19.2319C11.4715 19.844 10.5675 20.0089 10.1675 19.5099C9.69953 19.03 10.0495 18.1539 10.7125 18.0879ZM20.8665 18.1149C21.4145 17.8889 22.0865 18.3549 22.0445 18.9399C22.0665 19.5829 21.2365 20.0269 20.7015 19.6509C20.0945 19.3139 20.2055 18.3209 20.8665 18.1149ZM23.7045 20.915C23.4905 20.522 23.8795 20.0009 24.3245 20.0739C24.5445 20.0699 24.6995 20.2409 24.8405 20.3849C24.8695 20.6179 24.9185 20.896 24.7215 21.075C24.4545 21.408 23.8495 21.313 23.7045 20.915ZM7.43653 20.183C7.85153 19.912 8.44853 20.3169 8.35453 20.7929C8.30453 21.2159 7.76453 21.4569 7.40953 21.2169C7.02753 20.9999 7.04153 20.3809 7.43653 20.183ZM15.6295 21.0659C16.1725 20.8309 16.8645 21.2959 16.8125 21.884C16.8525 22.534 15.9975 22.9839 15.4665 22.594C14.8765 22.259 14.9755 21.2729 15.6295 21.0659ZM11.8355 21.9369C12.2975 21.6979 12.9175 22.111 12.8755 22.621C12.8895 23.0389 12.4755 23.395 12.0555 23.333C11.7085 23.326 11.4825 23.019 11.3705 22.728C11.3765 22.411 11.5095 22.0579 11.8355 21.9379V21.9369ZM19.5215 21.9449C19.9975 21.6549 20.6735 22.0709 20.6285 22.615C20.6405 23.1849 19.8765 23.549 19.4335 23.1749C19.0055 22.882 19.0575 22.1779 19.5215 21.9449ZM20.8585 25.195C20.6465 24.881 20.8955 24.502 21.2385 24.43C21.5155 24.485 21.8085 24.69 21.7495 25.004C21.7095 25.431 21.0755 25.5609 20.8585 25.1959V25.195ZM10.2475 24.922C10.3315 24.672 10.5355 24.4249 10.8345 24.49C11.2695 24.52 11.3985 25.166 11.0175 25.365C10.6755 25.5919 10.2775 25.281 10.2475 24.922ZM15.3675 25.209C15.4505 24.8389 15.9355 24.66 16.2555 24.856C16.4675 24.946 16.5295 25.1779 16.5835 25.3759C16.555 25.4788 16.5283 25.5821 16.5035 25.686C16.3725 25.838 16.2035 25.9909 15.9855 25.986C15.5805 26.033 15.2145 25.5819 15.3665 25.209H15.3675Z" fill="black" style="fill:black;fill:black;fill-opacity:1;"/>
</g>
<path d="M15.7255 6.05995C16.2045 5.81295 16.7895 6.38395 16.5355 6.85495C16.3865 7.23895 15.8255 7.34095 15.5395 7.04795C15.2365 6.76795 15.3355 6.21195 15.7255 6.05895V6.05995ZM10.5705 6.60595C10.8615 6.48795 11.2305 6.74995 11.2005 7.06295C11.2305 7.40095 10.8105 7.65095 10.5135 7.48995C10.1205 7.33995 10.1655 6.71195 10.5705 6.60595ZM21.1285 7.49895C20.6735 7.44495 20.6015 6.74095 21.0385 6.59895C21.3785 6.43695 21.6905 6.74195 21.7405 7.05895C21.6685 7.32895 21.4385 7.57695 21.1285 7.49895ZM11.7435 8.76395C12.2305 8.46095 12.9245 8.91195 12.8495 9.46895C12.8245 10.0299 12.0665 10.3559 11.6385 9.97595C11.2245 9.67795 11.2875 8.99395 11.7435 8.76395ZM19.1735 9.08595C19.3905 8.53595 20.2705 8.51795 20.5175 9.05395C20.7625 9.47095 20.4615 9.98795 20.0265 10.1299C19.4495 10.2359 18.9025 9.62195 19.1735 9.08595ZM15.1045 10.0989C15.0995 9.62495 15.5375 9.27295 15.9945 9.23995C16.2985 9.29995 16.6285 9.42695 16.7585 9.72795C17.0015 10.1439 16.7855 10.7149 16.3485 10.9059C16.1485 11.0159 15.9105 10.9749 15.6925 10.9619C15.3595 10.8019 15.0785 10.4849 15.1045 10.0989ZM7.43853 10.7889C7.88353 10.5189 8.48353 11.0089 8.31453 11.4849C8.22253 11.8959 7.66053 12.0629 7.33953 11.8009C6.99653 11.5549 7.05053 10.9639 7.43953 10.7879L7.43853 10.7889ZM23.9005 10.7869C24.2775 10.4989 24.9005 10.8299 24.8545 11.2979C24.8805 11.7249 24.3415 12.0479 23.9675 11.8279C23.5555 11.6449 23.5125 11.0209 23.9005 10.7879V10.7869ZM17.2605 11.6379C17.8825 11.4179 18.6225 11.6809 18.9765 12.2279C19.4445 12.8949 19.1965 13.9109 18.4695 14.2939C17.7175 14.7469 16.6185 14.3639 16.3395 13.5359C16.0245 12.7959 16.4845 11.8699 17.2595 11.6379H17.2605ZM13.6075 11.7109C14.2975 11.3909 15.2265 11.6589 15.5595 12.3529C15.9515 13.0289 15.6485 13.9699 14.9475 14.3189C14.2455 14.7119 13.2545 14.4139 12.9155 13.6889C12.5345 12.9869 12.8725 12.0339 13.6075 11.7109ZM9.95053 12.9399C10.0035 12.5029 10.4225 12.2179 10.8455 12.1879C11.0661 12.2112 11.2723 12.3087 11.4303 12.4644C11.5884 12.62 11.6889 12.8247 11.7155 13.0449C11.6855 13.4949 11.3325 13.9329 10.8485 13.9309C10.3155 13.9759 9.84853 13.4539 9.95053 12.9399ZM20.7525 12.2839C21.2995 11.9709 22.0585 12.4259 22.0345 13.0439C22.0715 13.6989 21.2315 14.1599 20.6875 13.7759C20.1215 13.4559 20.1655 12.5559 20.7525 12.2839ZM12.1225 14.5909C12.7605 14.4179 13.4925 14.7139 13.8055 15.2919C14.1485 15.8739 14.0085 16.6819 13.4755 17.11C12.7905 17.736 11.5295 17.4839 11.1655 16.6299C10.7465 15.8469 11.2555 14.7969 12.1215 14.5899L12.1225 14.5909ZM19.0495 14.5879C19.6705 14.4129 20.4005 14.6479 20.7345 15.2049C21.1765 15.8419 20.9655 16.7929 20.3085 17.2029C19.6185 17.6799 18.5525 17.4299 18.1725 16.6839C17.7125 15.9129 18.1755 14.8229 19.0495 14.5879ZM8.00953 15.3139C8.56153 15.1089 9.17353 15.7079 8.94953 16.2469C8.81353 16.7369 8.11053 16.9189 7.74753 16.5569C7.32253 16.2169 7.47953 15.4619 8.00953 15.3139ZM22.9785 16.096C22.9682 15.8758 23.0451 15.6605 23.1927 15.4968C23.3403 15.3331 23.5465 15.2344 23.7665 15.2219C24.1445 15.2819 24.5125 15.582 24.4825 15.9869C24.5175 16.5219 23.8625 16.885 23.3985 16.634C23.1815 16.525 23.0705 16.306 22.9785 16.096ZM5.29453 15.5799C5.62653 15.4369 6.03753 15.7199 5.96153 16.0829C5.94353 16.4939 5.32653 16.6529 5.10053 16.3089C4.90053 16.0699 5.02053 15.7029 5.29453 15.5789V15.5799ZM26.2435 15.5709C26.4775 15.4079 26.8535 15.5249 26.9455 15.7939C27.1025 16.0879 26.8145 16.4899 26.4785 16.4409C26.0065 16.4829 25.8545 15.7759 26.2435 15.5709ZM13.9265 17.544C14.8005 17.321 15.7405 18.0379 15.7465 18.9239C15.8025 19.8189 14.8765 20.6119 13.9825 20.4059C13.2905 20.2959 12.7475 19.6399 12.7705 18.9529C12.7685 18.2949 13.2725 17.683 13.9265 17.544ZM17.3885 17.5429C18.2755 17.2989 19.2435 18.0289 19.2295 18.9349C19.2765 19.8129 18.3795 20.58 17.5035 20.405C16.6785 20.301 16.0705 19.4099 16.3005 18.6219C16.4165 18.0979 16.8625 17.6719 17.3885 17.5419V17.5429ZM10.7125 18.0879C11.3265 17.9849 11.9025 18.6579 11.6535 19.2319C11.4715 19.844 10.5675 20.0089 10.1675 19.5099C9.69953 19.03 10.0495 18.1539 10.7125 18.0879ZM20.8665 18.1149C21.4145 17.8889 22.0865 18.3549 22.0445 18.9399C22.0665 19.5829 21.2365 20.0269 20.7015 19.6509C20.0945 19.3139 20.2055 18.3209 20.8665 18.1149ZM23.7045 20.915C23.4905 20.522 23.8795 20.0009 24.3245 20.0739C24.5445 20.0699 24.6995 20.2409 24.8405 20.3849C24.8695 20.6179 24.9185 20.896 24.7215 21.075C24.4545 21.408 23.8495 21.313 23.7045 20.915ZM7.43653 20.183C7.85153 19.912 8.44853 20.3169 8.35453 20.7929C8.30453 21.2159 7.76453 21.4569 7.40953 21.2169C7.02753 20.9999 7.04153 20.3809 7.43653 20.183ZM15.6295 21.0659C16.1725 20.8309 16.8645 21.2959 16.8125 21.884C16.8525 22.534 15.9975 22.9839 15.4665 22.594C14.8765 22.259 14.9755 21.2729 15.6295 21.0659ZM11.8355 21.9369C12.2975 21.6979 12.9175 22.111 12.8755 22.621C12.8895 23.0389 12.4755 23.395 12.0555 23.333C11.7085 23.326 11.4825 23.019 11.3705 22.728C11.3765 22.411 11.5095 22.0579 11.8355 21.9379V21.9369ZM19.5215 21.9449C19.9975 21.6549 20.6735 22.0709 20.6285 22.615C20.6405 23.1849 19.8765 23.549 19.4335 23.1749C19.0055 22.882 19.0575 22.1779 19.5215 21.9449ZM20.8585 25.195C20.6465 24.881 20.8955 24.502 21.2385 24.43C21.5155 24.485 21.8085 24.69 21.7495 25.004C21.7095 25.431 21.0755 25.5609 20.8585 25.1959V25.195ZM10.2475 24.922C10.3315 24.672 10.5355 24.4249 10.8345 24.49C11.2695 24.52 11.3985 25.166 11.0175 25.365C10.6755 25.5919 10.2775 25.281 10.2475 24.922ZM15.3675 25.209C15.4505 24.8389 15.9355 24.66 16.2555 24.856C16.4675 24.946 16.5295 25.1779 16.5835 25.3759C16.555 25.4788 16.5283 25.5821 16.5035 25.686C16.3725 25.838 16.2035 25.9909 15.9855 25.986C15.5805 26.033 15.2145 25.5819 15.3665 25.209H15.3675Z" fill="white" style="fill:white;fill:white;fill-opacity:1;"/>
</g>
<defs>
<filter id="filter0_d_5_1654" x="4.00098" y="5.50037" width="23.9885" height="21.989" filterUnits="userSpaceOnUse" color-interpolation-filters="sRGB">
<feFlood flood-opacity="0" result="BackgroundImageFix"/>
<feColorMatrix in="SourceAlpha" type="matrix" values="0 0 0 0 0 0 0 0 0 0 0 0 0 0 0 0 0 0 127 0" result="hardAlpha"/>
<feOffset dy="0.5"/>
<feGaussianBlur stdDeviation="0.5"/>
<feColorMatrix type="matrix" values="0 0 0 0 0 0 0 0 0 0 0 0 0 0 0 0 0 0 0.204257 0"/>
<feBlend mode="normal" in2="BackgroundImageFix" result="effect1_dropShadow_5_1654"/>
<feBlend mode="normal" in="SourceGraphic" in2="effect1_dropShadow_5_1654" result="shape"/>
</filter>
<clipPath id="clip0_5_1654">
<rect width="32" height="32" fill="white" style="fill:white;fill:white;fill-opacity:1;" transform="translate(0.000488281)"/>
</clipPath>
</defs>
</svg>
